Coordinates
version=1
nRows=41
nColumns=38
inDegrees=no

Units are S.I. units (second, meters, Newtons, ...)
If the header above contains a line with 'inDegrees', this indicates whether rotational values are in degrees (yes) or radians (no).

endheader
time	pelvis_tilt	pelvis_list	pelvis_rotation	pelvis_tx	pelvis_ty	pelvis_tz	hip_flexion_r	hip_adduction_r	hip_rotation_r	knee_angle_r	ankle_angle_r	subtalar_angle_r	mtp_angle_r	hip_flexion_l	hip_adduction_l	hip_rotation_l	knee_angle_l	ankle_angle_l	subtalar_angle_l	mtp_angle_l	lumbar_extension	lumbar_bending	lumbar_rotation	arm_flex_r	arm_add_r	arm_rot_r	elbow_flex_r	pro_sup_r	wrist_flex_r	wrist_dev_r	arm_flex_l	arm_add_l	arm_rot_l	elbow_flex_l	pro_sup_l	wrist_flex_l	wrist_dev_l
0.73	-2.81555	1.40838	-2.02036	0.763257	-0.370856	0.948707	-0.00412299	-0.217583	-0.140012	1.04033	-0.0999606	0	0	0.101922	0.0627304	-0.428552	0.255289	0.0432461	0	0	-0.249971	-0.0840192	0.183553	0.173146	-0.335152	0.946877	0.339621	0.74247	0	0	0.184051	-0.136824	0.157415	0.238857	1.5708	0	0
0.74	-2.78378	1.40988	-2.05104	0.762177	-0.362626	0.949075	0.0377517	-0.225934	-0.124985	1.0971	-0.115846	0	0	0.0943064	0.0698867	-0.424207	0.251957	0.0480883	0	0	-0.24556	-0.088501	0.181479	0.173857	-0.335364	0.945455	0.340667	0.742658	0	0	0.184325	-0.139083	0.159609	0.241002	1.5708	0	0
0.75	-2.76459	1.40943	-2.0685	0.761007	-0.35452	0.949709	0.0733862	-0.231783	-0.112086	1.14582	-0.120097	0	0	0.0828548	0.0768321	-0.419717	0.246246	0.0529631	0	0	-0.244422	-0.0915721	0.178545	0.175954	-0.335887	0.946509	0.341396	0.74202	0	0	0.185685	-0.140389	0.160665	0.241449	1.5708	0	0
0.76	-2.75837	1.40764	-2.07182	0.759694	-0.346655	0.950621	0.105037	-0.236037	-0.102591	1.18962	-0.111977	0	0	0.0680186	0.0834262	-0.414836	0.237766	0.0578751	0	0	-0.246416	-0.0929456	0.174503	0.179111	-0.336845	0.948503	0.342415	0.741861	0	0	0.188479	-0.140614	0.161732	0.24039	1.5708	0	0
0.77	-2.76558	1.40573	-2.06153	0.758354	-0.338996	0.951748	0.134387	-0.237386	-0.0942384	1.22911	-0.0931412	0	0	0.051682	0.0882109	-0.410186	0.228525	0.0633128	0	0	-0.250232	-0.0919815	0.17014	0.182958	-0.337775	0.949178	0.342995	0.744414	0	0	0.191014	-0.140316	0.165387	0.240717	1.5708	0	0
0.78	-2.76129	1.40336	-2.06013	0.75465	-0.330636	0.952667	0.154709	-0.265871	-0.0857997	1.23449	-0.179552	0	0	0.032675	0.102194	-0.395983	0.211282	0.0624084	0	0	-0.252078	-0.0886435	0.162197	0.184867	-0.342348	0.950592	0.344364	0.746129	0	0	0.192876	-0.134214	0.162372	0.235062	1.5708	0	0
0.79	-2.78807	1.40618	-2.03417	0.755862	-0.32417	0.953747	0.193388	-0.232975	-0.0776761	1.29355	-0.044865	0	0	0.0218214	0.0948883	-0.399777	0.207074	0.0708402	0	0	-0.254726	-0.08636	0.162994	0.190933	-0.340509	0.958187	0.345577	0.737554	0	0	0.19789	-0.136068	0.165584	0.235269	1.5708	0	0
0.8	-2.8012	1.405	-2.01613	0.752293	-0.316027	0.954739	0.210476	-0.257488	-0.0664387	1.28549	-0.142048	0	0	0.00403106	0.104252	-0.386939	0.192691	0.0707388	0	0	-0.257236	-0.0794378	0.156134	0.193105	-0.345114	0.960976	0.34703	0.736294	0	0	0.198898	-0.12956	0.1647	0.232169	1.5708	0	0
0.81	-2.89663	1.40398	-1.92018	0.750824	-0.309995	0.957447	0.22718	-0.247666	-0.0722032	1.29399	-0.133573	0	0	-0.0161458	0.0939283	-0.379479	0.182598	0.071908	0	0	-0.271354	-0.0623388	0.156458	0.199902	-0.345372	0.934785	0.340842	0.778857	0	0	0.205416	-0.123291	0.173058	0.231617	1.5708	0	0
0.82	-2.82123	1.39881	-1.99116	0.750794	-0.302354	0.958155	0.253068	-0.251782	-0.051544	1.31023	-0.110071	0	0	-0.0392047	0.112011	-0.335055	0.15403	0.0297286	0	0	-0.272679	-0.0785026	0.148589	0.203894	-0.338907	0.950801	0.338253	0.754779	0	0	0.212861	-0.124723	0.156355	0.220674	1.5708	0	0
0.83	-2.86433	1.40778	-1.94437	0.749365	-0.295025	0.957921	0.281654	-0.239212	-0.0500615	1.31776	-0.0923989	0	0	-0.038371	0.104293	-0.364618	0.162884	0.0766617	0	0	-0.268246	-0.0653681	0.145251	0.207186	-0.341176	0.95488	0.339093	0.752336	0	0	0.214341	-0.121308	0.155839	0.219042	1.5708	0	0
0.84	-2.8822	1.40949	-1.92314	0.748661	-0.288268	0.958693	0.304052	-0.232173	-0.0462417	1.31961	-0.0776542	0	0	-0.0477313	0.101774	-0.364897	0.160575	0.083332	0	0	-0.27119	-0.0612218	0.141292	0.212717	-0.340199	0.959198	0.337459	0.749841	0	0	0.219105	-0.120526	0.155691	0.21724	1.5708	0	0
0.85	-2.89883	1.41043	-1.90229	0.747962	-0.28154	0.959401	0.323637	-0.226314	-0.0445411	1.31621	-0.0633222	0	0	-0.0591178	0.10039	-0.361681	0.155462	0.0901833	0	0	-0.274697	-0.0574703	0.136609	0.218173	-0.33948	0.963024	0.335909	0.747047	0	0	0.224354	-0.1201	0.15521	0.214717	1.5708	0	0
0.86	-2.9175	1.41117	-1.87909	0.747154	-0.274873	0.960071	0.341274	-0.220556	-0.0440293	1.30808	-0.0468576	0	0	-0.0703162	0.098578	-0.357351	0.1517	0.103068	0	0	-0.278574	-0.0532655	0.13169	0.223695	-0.339546	0.965583	0.335423	0.745146	0	0	0.22967	-0.120033	0.15541	0.212508	1.5708	0	0
0.87	-2.93956	1.41355	-1.85275	0.748645	-0.268809	0.960773	0.365772	-0.189616	-0.0526963	1.32285	0.1063	0	0	-0.0776824	0.0881988	-0.362567	0.154555	0.127758	0	0	-0.282087	-0.0519024	0.129417	0.228479	-0.335191	0.9568	0.333577	0.757851	0	0	0.238045	-0.124012	0.159153	0.209747	1.5708	0	0
0.88	-2.96093	1.41219	-1.82544	0.745743	-0.261587	0.961388	0.371459	-0.209699	-0.0492946	1.27901	-0.0160892	0	0	-0.0908024	0.0937403	-0.345034	0.150068	0.140466	0	0	-0.286764	-0.0434237	0.120976	0.234076	-0.342088	0.968839	0.338856	0.742028	0	0	0.240989	-0.120129	0.157389	0.20648	1.5708	0	0
0.89	-2.98405	1.41186	-1.79693	0.74508	-0.254858	0.962047	0.383226	-0.205159	-0.0540881	1.25789	-0.00195058	0	0	-0.103484	0.092554	-0.332474	0.145224	0.154742	0	0	-0.29144	-0.0382163	0.115341	0.239037	-0.34438	0.969402	0.341593	0.742495	0	0	0.245495	-0.120253	0.160839	0.204801	1.5708	0	0
0.9	-3.00941	1.41242	-1.766	0.744413	-0.248229	0.962528	0.394166	-0.200141	-0.0601507	1.23266	0.009195	0	0	-0.11488	0.0903338	-0.320562	0.139032	0.15802	0	0	-0.295457	-0.0327316	0.11074	0.242365	-0.34323	0.945468	0.337518	0.780402	0	0	0.246084	-0.123409	0.188639	0.21352	1.5708	0	0
0.91	-3.03564	1.4133	-1.73372	0.743637	-0.241606	0.96288	0.403946	-0.195836	-0.07007	1.20393	0.0178237	0	0	-0.125444	0.0873076	-0.311792	0.131129	0.148129	0	0	-0.298871	-0.0262148	0.104005	0.249855	-0.348979	0.971246	0.343023	0.749535	0	0	0.254334	-0.118029	0.168736	0.197409	1.5708	0	0
0.92	-3.04491	1.41385	-1.71591	0.743788	-0.234957	0.963288	0.410833	-0.181767	-0.0819638	1.17266	0.0196408	0	0	-0.136494	0.0816643	-0.31135	0.123235	0.139393	0	0	-0.302337	-0.0241969	0.0973059	0.253539	-0.348881	0.964255	0.341621	0.765064	0	0	0.256558	-0.118938	0.179243	0.199229	1.5708	0	0
0.93	-3.07391	1.41358	-1.68177	0.743259	-0.228167	0.963584	0.416133	-0.176338	-0.0894567	1.13719	0.0274009	0	0	-0.146882	0.0772073	-0.306659	0.118352	0.13199	0	0	-0.306711	-0.018055	0.0920884	0.259242	-0.352572	0.973362	0.343187	0.758779	0	0	0.258946	-0.115473	0.176644	0.194808	1.5708	0	0
0.94	-3.10078	1.41403	-1.65192	0.743034	-0.221207	0.96368	0.421266	-0.170297	-0.0955179	1.09921	0.0381266	0	0	-0.155796	0.0724758	-0.306823	0.115513	0.12779	0	0	-0.30974	-0.0127964	0.0888448	0.26422	-0.355266	0.978679	0.343011	0.757275	0	0	0.259288	-0.112005	0.17457	0.192643	1.5708	0	0
0.95	-3.12674	1.4146	-1.6236	0.742932	-0.214192	0.96364	0.425216	-0.164377	-0.102148	1.05904	0.0509325	0	0	-0.163853	0.0673375	-0.309809	0.113912	0.12271	0	0	-0.312455	-0.00783624	0.0859994	0.269004	-0.358021	0.983189	0.343323	0.756247	0	0	0.258825	-0.108422	0.17201	0.191467	1.5708	0	0
0.96	3.12749	1.41434	-1.5921	0.742884	-0.207238	0.963625	0.426046	-0.157533	-0.109919	1.01482	0.0561011	0	0	-0.172291	0.0613934	-0.312632	0.112875	0.116043	0	0	-0.316314	-0.00241073	0.0831954	0.273789	-0.360953	0.987218	0.344136	0.755461	0	0	0.258689	-0.104934	0.170148	0.190781	1.5708	0	0
0.97	3.10341	1.41351	-1.5649	0.742816	-0.200327	0.963608	0.42458	-0.152033	-0.119185	0.967854	0.0599948	0	0	-0.181128	0.0568677	-0.310869	0.112081	0.115506	0	0	-0.320932	0.00237213	0.0797948	0.278574	-0.363788	0.990832	0.345265	0.754948	0	0	0.258884	-0.102105	0.168728	0.190576	1.5708	0	0
0.98	3.086	1.41274	-1.54453	0.742832	-0.193354	0.963528	0.421546	-0.148113	-0.130193	0.917888	0.0632461	0	0	-0.189788	0.05369	-0.306821	0.112251	0.120402	0	0	-0.325313	0.00588407	0.0766115	0.282744	-0.366275	0.992656	0.346862	0.755125	0	0	0.258977	-0.100348	0.167245	0.191244	1.5708	0	0
0.99	3.06964	1.41133	-1.52525	0.742982	-0.186274	0.963446	0.41587	-0.14447	-0.143316	0.864636	0.0662659	0	0	-0.19896	0.0502273	-0.302862	0.113063	0.125968	0	0	-0.330117	0.00886143	0.0745514	0.284715	-0.365877	0.973232	0.344484	0.785076	0	0	0.255655	-0.102197	0.184745	0.201816	1.5708	0	0
1	3.06264	1.41227	-1.51646	0.743384	-0.179087	0.962977	0.412971	-0.142045	-0.156123	0.81152	0.069363	0	0	-0.204905	0.0479298	-0.301891	0.115503	0.131122	0	0	-0.331807	0.00986301	0.073307	0.287361	-0.367931	0.976141	0.3467	0.782223	0	0	0.257	-0.101235	0.176473	0.199388	1.5708	0	0
1.01	3.05673	1.413	-1.50834	0.743894	-0.171769	0.962465	0.407706	-0.139659	-0.171045	0.755233	0.0716802	0	0	-0.211085	0.0454189	-0.301252	0.118212	0.136462	0	0	-0.333307	0.0106803	0.0719603	0.28924	-0.369341	0.978487	0.348392	0.779818	0	0	0.257627	-0.100973	0.170104	0.198181	1.5708	0	0
1.02	3.05541	1.41419	-1.5046	0.744557	-0.164334	0.961819	0.401836	-0.137785	-0.186873	0.698	0.0728414	0	0	-0.216704	0.0433866	-0.300402	0.121411	0.142284	0	0	-0.334015	0.0104865	0.0706731	0.29031	-0.369998	0.980892	0.349524	0.777048	0	0	0.257297	-0.101413	0.164773	0.198597	1.5708	0	0
1.03	3.05626	1.41544	-1.50244	0.745314	-0.156795	0.96108	0.394487	-0.135682	-0.203322	0.639158	0.0734366	0	0	-0.221707	0.0413082	-0.298325	0.125907	0.148209	0	0	-0.334509	0.00998677	0.0693074	0.29048	-0.370306	0.983464	0.350643	0.774157	0	0	0.256373	-0.102147	0.160984	0.200221	1.5708	0	0
1.04	3.05753	1.41689	-1.50066	0.746211	-0.149139	0.960212	0.385957	-0.132565	-0.219763	0.578669	0.074719	0	0	-0.226073	0.0389004	-0.297294	0.131295	0.154368	0	0	-0.334685	0.00941857	0.0682537	0.289961	-0.370311	0.985452	0.351698	0.771418	0	0	0.255215	-0.102894	0.158823	0.202336	1.5708	0	0
1.05	3.05286	1.41876	-1.4944	0.747392	-0.141302	0.959219	0.37705	-0.126794	-0.234228	0.517516	0.0754332	0	0	-0.229784	0.0354581	-0.299122	0.137416	0.160984	0	0	-0.333988	0.00944139	0.0690697	0.288695	-0.370035	0.98741	0.352228	0.767633	0	0	0.253933	-0.103216	0.157814	0.203919	1.5708	0	0
1.06	3.04399	1.42064	-1.48389	0.748683	-0.133363	0.958107	0.367004	-0.119213	-0.246978	0.456129	0.0777798	0	0	-0.233092	0.0312295	-0.300933	0.144261	0.16811	0	0	-0.333062	0.0102227	0.0704832	0.286928	-0.369211	0.989549	0.351546	0.762874	0	0	0.253342	-0.103278	0.158097	0.204393	1.5708	0	0
1.07	3.03477	1.4223	-1.47304	0.750054	-0.125274	0.956904	0.355757	-0.110387	-0.25641	0.395235	0.0819651	0	0	-0.236879	0.0270693	-0.30236	0.150753	0.174357	0	0	-0.332224	0.0112104	0.072341	0.284523	-0.368196	0.991537	0.350595	0.758033	0	0	0.253534	-0.103171	0.159356	0.203393	1.5708	0	0
1.08	3.02158	1.42206	-1.45818	0.751545	-0.117009	0.9558	0.340089	-0.0992483	-0.261721	0.331928	0.083094	0	0	-0.243194	0.0220493	-0.303951	0.156759	0.180292	0	0	-0.333058	0.0129596	0.0751483	0.281033	-0.366324	0.988837	0.348176	0.756561	0	0	0.250701	-0.106591	0.183548	0.211419	1.5708	0	0
1.09	3.01686	1.42398	-1.45229	0.753132	-0.108546	0.954339	0.32804	-0.089816	-0.262656	0.274297	0.0838912	0	0	-0.2483	0.019201	-0.304661	0.16083	0.185805	0	0	-0.331172	0.0133823	0.0774917	0.277472	-0.365212	0.99362	0.347499	0.745858	0	0	0.252826	-0.105292	0.173506	0.203784	1.5708	0	0
1.1	3.00611	1.424	-1.44005	0.754797	-0.0998593	0.952941	0.311766	-0.0782495	-0.256122	0.21528	0.0793051	0	0	-0.256327	0.0154899	-0.3035	0.163137	0.190076	0	0	-0.330613	0.0152408	0.0799479	0.27376	-0.366211	1.00686	0.350567	0.719679	0	0	0.253848	-0.105266	0.167777	0.198449	1.5708	0	0
1.11	2.99928	1.42607	-1.4319	0.756496	-0.0910148	0.951145	0.300097	-0.0691113	-0.246815	0.165301	0.0751503	0	0	-0.26294	0.013233	-0.300222	0.164427	0.19468	0	0	-0.327445	0.0161645	0.0829769	0.267644	-0.364794	1.00341	0.349679	0.719725	0	0	0.252775	-0.106766	0.169531	0.197464	1.5708	0	0
1.12	2.98988	1.42808	-1.42103	0.758266	-0.0819895	0.949215	0.290079	-0.0610417	-0.236046	0.12357	0.0708011	0	0	-0.270325	0.0104852	-0.29677	0.165372	0.201959	0	0	-0.323859	0.0174946	0.0860641	0.260637	-0.363302	0.998328	0.348982	0.720199	0	0	0.250912	-0.10846	0.170762	0.196724	1.5708	0	0
1.13	2.97862	1.4291	-1.40783	0.759982	-0.0727626	0.947317	0.280312	-0.0539637	-0.224773	0.0899807	0.0668908	0	0	-0.27993	0.00741783	-0.292272	0.164785	0.209261	0	0	-0.320931	0.019503	0.0886149	0.253069	-0.361993	0.991092	0.349307	0.720867	0	0	0.248197	-0.11027	0.171503	0.196685	1.5708	0	0
